<svg width="20" height="20" viewBox="0 0 20 20" fill="none" xmlns="http://www.w3.org/2000/svg">
<path d="M14.2703 9.7444L14.7465 10.3238L14.2703 9.7444ZM5.37862 9.75574L5.87738 9.19561L5.37862 9.75574ZM11.3675 17.3421L10.9347 16.7296L11.3675 17.3421ZM9.42621 18.7135L9.85896 19.3261L9.42621 18.7135ZM2.12603 6.85954L1.62728 7.41967L2.12603 6.85954ZM17.7906 6.85091L17.3144 6.27151L17.7906 6.85091ZM14 5.75C14.4142 5.75 14.75 5.41421 14.75 5C14.75 4.58579 14.4142 4.25 14 4.25V5.75ZM6 4.25C5.58579 4.25 5.25 4.58578 5.25 5C5.25 5.41421 5.58579 5.75 6 5.75V4.25ZM4.47246 1.75H15.5842V0.25H4.47246V1.75ZM10.9347 16.7296L8.99346 18.101L9.85896 19.3261L11.8002 17.9547L10.9347 16.7296ZM7.75 17.5134V13.336H6.25V17.5134H7.75ZM5.87738 9.19561L2.62479 6.29941L1.62728 7.41967L4.87987 10.3159L5.87738 9.19561ZM17.3144 6.27151L13.7941 9.165L14.7465 10.3238L18.2668 7.43032L17.3144 6.27151ZM11.75 13.4521V15.1817H13.25V13.4521H11.75ZM13.7941 9.165C12.5015 10.2274 11.75 11.7946 11.75 13.4521H13.25C13.25 12.2522 13.7936 11.107 14.7465 10.3238L13.7941 9.165ZM7.75 13.336C7.75 11.7567 7.0674 10.2552 5.87738 9.19561L4.87987 10.3159C5.75613 11.0961 6.25 12.1925 6.25 13.336H7.75ZM11.8002 17.9547C12.7061 17.3147 13.25 16.2855 13.25 15.1817H11.75C11.75 15.7872 11.4519 16.3642 10.9347 16.7296L11.8002 17.9547ZM8.99346 18.101C8.44746 18.4867 7.75 18.0779 7.75 17.5134H6.25C6.25 19.3745 8.38547 20.367 9.85896 19.3261L8.99346 18.101ZM0.25 4.37307C0.25 5.53648 0.752889 6.64108 1.62728 7.41967L2.62479 6.29941C2.06416 5.80021 1.75 5.10064 1.75 4.37307H0.25ZM18.25 4.318C18.25 5.06517 17.9116 5.78069 17.3144 6.27151L18.2668 7.43032C19.2037 6.66027 19.75 5.52281 19.75 4.318H18.25ZM15.5842 1.75C17.0772 1.75 18.25 2.92011 18.25 4.318H19.75C19.75 2.05092 17.8642 0.25 15.5842 0.25V1.75ZM4.47246 0.25C2.16114 0.25 0.25 2.07558 0.25 4.37307H1.75C1.75 2.94477 2.94821 1.75 4.47246 1.75V0.25ZM14 4.25L6 4.25V5.75L14 5.75V4.25Z" fill="#2D264B"/>
</svg>
